<!DOCTYPE svg PUBLIC "-//W3C//DTD SVG 1.1//EN" "http://www.w3.org/Graphics/SVG/1.1/DTD/svg11.dtd">
<!-- Uploaded to: SVG Repo, www.svgrepo.com, Transformed by: SVG Repo Mixer Tools -->
<svg fill="#000000" width="800px" height="800px" viewBox="0 0 24 24" id="hotel" data-name="Flat Line" xmlns="http://www.w3.org/2000/svg" class="icon flat-line">
<g id="SVGRepo_bgCarrier" stroke-width="0"/>
<g id="SVGRepo_tracerCarrier" stroke-linecap="round" stroke-linejoin="round"/>
<g id="SVGRepo_iconCarrier">
<path id="secondary" d="M19,3H5A1,1,0,0,0,4,4V21h6V15h4v6h6V4A1,1,0,0,0,19,3Z" style="fill: #003A5C; stroke-width:1.488;"/>
<path id="primary" d="M14,21V15H10v6ZM8,7h2M8,11h2m6-4H14m2,4H14m6,10H4V4A1,1,0,0,1,5,3H19a1,1,0,0,1,1,1Zm1,0H3" style="fill: none; stroke: #FDF8F1; stroke-linecap: round; stroke-linejoin: round; stroke-width:1.488;"/>
</g>
</svg>